<svg width="133" height="32" viewBox="0 0 133 32" fill="none" xmlns="http://www.w3.org/2000/svg">
<path d="M54.93 22H52.05V16.69C52.05 16.078 51.936 15.628 51.708 15.34C51.48 15.052 51.186 14.908 50.826 14.908C50.442 14.908 50.064 15.064 49.692 15.376C49.32 15.688 49.056 16.09 48.9 16.582V22H46.02V16.69C46.02 16.066 45.906 15.616 45.678 15.34C45.45 15.052 45.156 14.908 44.796 14.908C44.424 14.908 44.052 15.064 43.68 15.376C43.308 15.688 43.038 16.09 42.87 16.582V22H39.99V12.55H42.582V14.134C42.93 13.57 43.398 13.138 43.986 12.838C44.586 12.526 45.282 12.37 46.074 12.37C46.854 12.37 47.454 12.556 47.874 12.928C48.294 13.288 48.564 13.714 48.684 14.206C49.044 13.618 49.518 13.168 50.106 12.856C50.706 12.532 51.378 12.37 52.122 12.37C52.722 12.37 53.208 12.484 53.58 12.712C53.952 12.928 54.234 13.216 54.426 13.576C54.618 13.936 54.75 14.326 54.822 14.746C54.894 15.154 54.93 15.556 54.93 15.952V22ZM57.2661 23.422C57.5061 23.494 57.7281 23.548 57.9321 23.584C58.1481 23.632 58.3401 23.656 58.5081 23.656C58.7361 23.656 58.9281 23.602 59.0841 23.494C59.2521 23.398 59.3961 23.224 59.5161 22.972C59.6361 22.732 59.7441 22.408 59.8401 22L56.2401 12.55H59.2101L61.4061 19.048L63.2781 12.55H65.9961L62.3961 23.53C62.2281 24.046 61.9701 24.502 61.6221 24.898C61.2741 25.294 60.8541 25.6 60.3621 25.816C59.8701 26.044 59.3301 26.158 58.7421 26.158C58.4901 26.158 58.2441 26.134 58.0041 26.086C57.7641 26.05 57.5181 25.984 57.2661 25.888V23.422ZM86.9074 22H84.0274V16.69C84.0274 16.078 83.9134 15.628 83.6854 15.34C83.4574 15.052 83.1634 14.908 82.8034 14.908C82.4194 14.908 82.0414 15.064 81.6694 15.376C81.2974 15.688 81.0334 16.09 80.8774 16.582V22H77.9974V16.69C77.9974 16.066 77.8834 15.616 77.6554 15.34C77.4274 15.052 77.1334 14.908 76.7734 14.908C76.4014 14.908 76.0294 15.064 75.6574 15.376C75.2854 15.688 75.0154 16.09 74.8474 16.582V22H71.9674V12.55H74.5594V14.134C74.9074 13.57 75.3754 13.138 75.9634 12.838C76.5634 12.526 77.2594 12.37 78.0514 12.37C78.8314 12.37 79.4314 12.556 79.8514 12.928C80.2714 13.288 80.5414 13.714 80.6614 14.206C81.0214 13.618 81.4954 13.168 82.0834 12.856C82.6834 12.532 83.3554 12.37 84.0994 12.37C84.6994 12.37 85.1854 12.484 85.5574 12.712C85.9294 12.928 86.2114 13.216 86.4034 13.576C86.5954 13.936 86.7274 14.326 86.7994 14.746C86.8714 15.154 86.9074 15.556 86.9074 15.952V22ZM93.8297 22.18C93.0257 22.18 92.3057 22.048 91.6697 21.784C91.0457 21.52 90.5177 21.16 90.0857 20.704C89.6537 20.248 89.3237 19.726 89.0957 19.138C88.8797 18.55 88.7717 17.932 88.7717 17.284C88.7717 16.624 88.8797 16 89.0957 15.412C89.3237 14.824 89.6537 14.302 90.0857 13.846C90.5177 13.39 91.0457 13.03 91.6697 12.766C92.3057 12.502 93.0257 12.37 93.8297 12.37C94.6337 12.37 95.3477 12.502 95.9717 12.766C96.5957 13.03 97.1237 13.39 97.5557 13.846C97.9877 14.302 98.3177 14.824 98.5457 15.412C98.7737 16 98.8877 16.624 98.8877 17.284C98.8877 17.932 98.7737 18.55 98.5457 19.138C98.3177 19.726 97.9877 20.248 97.5557 20.704C97.1237 21.16 96.5957 21.52 95.9717 21.784C95.3477 22.048 94.6337 22.18 93.8297 22.18ZM91.7237 17.284C91.7237 17.776 91.8137 18.208 91.9937 18.58C92.1857 18.952 92.4377 19.24 92.7497 19.444C93.0617 19.648 93.4217 19.75 93.8297 19.75C94.2257 19.75 94.5797 19.648 94.8917 19.444C95.2157 19.228 95.4677 18.934 95.6477 18.562C95.8277 18.19 95.9177 17.764 95.9177 17.284C95.9177 16.792 95.8277 16.36 95.6477 15.988C95.4677 15.616 95.2157 15.328 94.8917 15.124C94.5797 14.92 94.2257 14.818 93.8297 14.818C93.4217 14.818 93.0617 14.92 92.7497 15.124C92.4377 15.328 92.1857 15.616 91.9937 15.988C91.8137 16.36 91.7237 16.792 91.7237 17.284ZM109.964 22H107.084V16.69C107.084 16.066 106.964 15.616 106.724 15.34C106.496 15.052 106.19 14.908 105.806 14.908C105.542 14.908 105.272 14.98 104.996 15.124C104.72 15.268 104.468 15.466 104.24 15.718C104.024 15.97 103.856 16.258 103.736 16.582V22H100.856V12.55H103.448V14.134C103.688 13.762 103.988 13.444 104.348 13.18C104.708 12.916 105.122 12.718 105.59 12.586C106.058 12.442 106.568 12.37 107.12 12.37C107.732 12.37 108.224 12.484 108.596 12.712C108.98 12.928 109.268 13.216 109.46 13.576C109.664 13.936 109.796 14.326 109.856 14.746C109.928 15.154 109.964 15.556 109.964 15.952V22ZM116.935 22.18C116.131 22.18 115.417 22.054 114.793 21.802C114.169 21.538 113.635 21.184 113.191 20.74C112.759 20.296 112.429 19.786 112.201 19.21C111.973 18.622 111.859 18.01 111.859 17.374C111.859 16.462 112.057 15.634 112.453 14.89C112.861 14.134 113.443 13.528 114.199 13.072C114.955 12.604 115.867 12.37 116.935 12.37C118.003 12.37 118.909 12.598 119.653 13.054C120.409 13.51 120.985 14.11 121.381 14.854C121.777 15.586 121.975 16.384 121.975 17.248C121.975 17.416 121.963 17.584 121.939 17.752C121.927 17.908 121.915 18.046 121.903 18.166H114.919C114.955 18.586 115.069 18.94 115.261 19.228C115.465 19.516 115.723 19.738 116.035 19.894C116.347 20.038 116.677 20.11 117.025 20.11C117.457 20.11 117.859 20.008 118.231 19.804C118.615 19.6 118.879 19.324 119.023 18.976L121.471 19.66C121.231 20.152 120.889 20.59 120.445 20.974C120.013 21.346 119.497 21.64 118.897 21.856C118.309 22.072 117.655 22.18 116.935 22.18ZM114.847 16.402H118.951C118.903 16.006 118.789 15.664 118.609 15.376C118.429 15.076 118.189 14.848 117.889 14.692C117.589 14.524 117.259 14.44 116.899 14.44C116.527 14.44 116.191 14.524 115.891 14.692C115.603 14.848 115.369 15.076 115.189 15.376C115.009 15.664 114.895 16.006 114.847 16.402ZM123.576 23.422C123.816 23.494 124.038 23.548 124.242 23.584C124.458 23.632 124.65 23.656 124.818 23.656C125.046 23.656 125.238 23.602 125.394 23.494C125.562 23.398 125.706 23.224 125.826 22.972C125.946 22.732 126.054 22.408 126.15 22L122.55 12.55H125.52L127.716 19.048L129.588 12.55H132.306L128.706 23.53C128.538 24.046 128.28 24.502 127.932 24.898C127.584 25.294 127.164 25.6 126.672 25.816C126.18 26.044 125.64 26.158 125.052 26.158C124.8 26.158 124.554 26.134 124.314 26.086C124.074 26.05 123.828 25.984 123.576 25.888V23.422Z" fill="white"/>
<path d="M26.6418 4.57097C23.6942 1.62331 19.775 0 15.6064 0C11.4378 0 7.51863 1.62331 4.57097 4.57097C1.62331 7.51863 0 11.4378 0 15.6064C0 19.775 1.62337 23.6941 4.57097 26.6418C7.51857 29.5896 11.4378 31.2128 15.6064 31.2128C19.775 31.2128 23.6942 29.5895 26.6418 26.6418C29.5895 23.6942 31.2128 19.775 31.2128 15.6064C31.2128 11.4378 29.5894 7.51869 26.6418 4.57097Z" fill="#33CC95"/>
<g clip-path="url(#clip0)">
<path d="M16.0523 6.24263V25.8621" stroke="white" stroke-width="2" stroke-linecap="round" stroke-linejoin="round"/>
<path d="M20.5113 9.80981H13.8228C12.995 9.80981 12.2011 10.1387 11.6157 10.724C11.0304 11.3094 10.7015 12.1033 10.7015 12.9311C10.7015 13.7589 11.0304 14.5528 11.6157 15.1382C12.2011 15.7235 12.995 16.0524 13.8228 16.0524H18.2818C19.1096 16.0524 19.9035 16.3812 20.4889 16.9666C21.0742 17.5519 21.4031 18.3458 21.4031 19.1737C21.4031 20.0015 21.0742 20.7954 20.4889 21.3807C19.9035 21.9661 19.1096 22.2949 18.2818 22.2949H10.7015" stroke="white" stroke-width="2" stroke-linecap="round" stroke-linejoin="round"/>
</g>
<defs>
<clipPath id="clip0">
<rect width="21.4031" height="21.4031" fill="white" transform="translate(5.35077 5.35083)"/>
</clipPath>
</defs>
</svg>
